<svg width="1221" height="775" viewBox="0 0 1221 775" fill="none" xmlns="http://www.w3.org/2000/svg">
<g filter="url(#filter0_f_8001_194)">
<rect x="493.16" y="613.16" width="10.1602" height="10.1602" rx="1" transform="rotate(-180 493.16 613.16)" fill="#00B068"/>
<rect x="453.672" y="492.16" width="10.1602" height="10.1602" rx="1" transform="rotate(-180 453.672 492.16)" fill="#00B068"/>
<rect x="422.672" y="730.24" width="15.2404" height="15.2404" rx="1" transform="rotate(-180 422.672 730.24)" fill="#00B068"/>
<rect x="536.672" y="644.24" width="15.2404" height="15.2404" rx="1" transform="rotate(-180 536.672 644.24)" fill="#00B068"/>
<rect x="417.672" y="550.08" width="5.08012" height="5.08012" rx="1" transform="rotate(-180 417.672 550.08)" fill="#00B068"/>
<rect x="558.672" y="570.363" width="5.08012" height="5.08012" rx="1" transform="rotate(-180 558.672 570.363)" fill="#00B068"/>
<rect x="325.08" y="715.428" width="5.08012" height="5.08012" rx="1" transform="rotate(-180 325.08 715.428)" fill="#00B068"/>
<rect x="212.082" y="746.428" width="5.08012" height="5.08012" rx="1" transform="rotate(-180 212.082 746.428)" fill="#00B068"/>
<rect x="386.672" y="623.16" width="10.1602" height="10.1602" rx="1" transform="rotate(-180 386.672 623.16)" fill="#00B068"/>
<rect x="345.672" y="527.08" width="5.08012" height="5.08012" rx="1" transform="rotate(-180 345.672 527.08)" fill="#00B068"/>
</g>
<g filter="url(#filter1_f_8001_194)">
<rect x="1149.16" y="147.16" width="10.1602" height="10.1602" rx="1" transform="rotate(-180 1149.16 147.16)" fill="#00B068"/>
<rect x="1060.67" y="16.1602" width="10.1602" height="10.1602" rx="1" transform="rotate(-180 1060.67 16.1602)" fill="#00B068"/>
<rect x="1078.67" y="264.24" width="15.2404" height="15.2404" rx="1" transform="rotate(-180 1078.67 264.24)" fill="#00B068"/>
<rect x="1192.67" y="178.24" width="15.2404" height="15.2404" rx="1" transform="rotate(-180 1192.67 178.24)" fill="#00B068"/>
<rect x="1073.67" y="84.0801" width="5.08012" height="5.08012" rx="1" transform="rotate(-180 1073.67 84.0801)" fill="#00B068"/>
<rect x="1214.67" y="104.363" width="5.08012" height="5.08012" rx="1" transform="rotate(-180 1214.67 104.363)" fill="#00B068"/>
<rect x="981.082" y="249.426" width="5.08012" height="5.08012" rx="1" transform="rotate(-180 981.082 249.426)" fill="#00B068"/>
<rect x="868.082" y="280.426" width="5.08012" height="5.08012" rx="1" transform="rotate(-180 868.082 280.426)" fill="#00B068"/>
<rect x="1042.67" y="157.16" width="10.1602" height="10.1602" rx="1" transform="rotate(-180 1042.67 157.16)" fill="#00B068"/>
<rect x="1001.67" y="61.0801" width="5.08012" height="5.08012" rx="1" transform="rotate(-180 1001.67 61.0801)" fill="#00B068"/>
</g>
<defs>
<filter id="filter0_f_8001_194" x="198" y="465" width="368" height="288" filterUnits="userSpaceOnUse" color-interpolation-filters="sRGB">
<feFlood flood-opacity="0" result="BackgroundImageFix"/>
<feBlend mode="normal" in="SourceGraphic" in2="BackgroundImageFix" result="shape"/>
<feGaussianBlur stdDeviation="3" result="effect1_foregroundBlur_8001_194"/>
</filter>
<filter id="filter1_f_8001_194" x="854" y="-1" width="368" height="288" filterUnits="userSpaceOnUse" color-interpolation-filters="sRGB">
<feFlood flood-opacity="0" result="BackgroundImageFix"/>
<feBlend mode="normal" in="SourceGraphic" in2="BackgroundImageFix" result="shape"/>
<feGaussianBlur stdDeviation="3" result="effect1_foregroundBlur_8001_194"/>
</filter>
</defs>
</svg>
